<svg width="14" height="15" viewBox="0 0 14 15" fill="none" xmlns="http://www.w3.org/2000/svg">
<path d="M4.5 0H5.5V1H4.5V0Z" fill="#006B1E"/>
<path d="M5.5 0H6.5V1H5.5V0Z" fill="#006B1E"/>
<path d="M6.5 0H7.5V1H6.5V0Z" fill="#006B1E"/>
<path d="M7.5 0H8.5V1H7.5V0Z" fill="#006B1E"/>
<path d="M8.5 0H9.5V1H8.5V0Z" fill="#006B1E"/>
<path d="M3.5 1H4.5V2H3.5V1Z" fill="#00C443"/>
<path d="M2.5 1H3.5V2H2.5V1Z" fill="#00C443"/>
<path d="M1.5 2H2.5V3H1.5V2Z" fill="#00C443"/>
<path d="M1.5 3H2.5V4H1.5V3Z" fill="#00C443"/>
<path d="M0.5 4H1.5V5H0.5V4Z" fill="#006B1E"/>
<path d="M0.5 5H1.5V6H0.5V5Z" fill="#006B1E"/>
<path d="M0.5 6H1.5V7H0.5V6Z" fill="#006B1E"/>
<path d="M0.5 7H1.5V8H0.5V7Z" fill="#006B1E"/>
<path d="M0.5 8H1.5V9H0.5V8Z" fill="#006B1E"/>
<path d="M1.5 9H2.5V10H1.5V9Z" fill="#00C443"/>
<path d="M1.5 10H2.5V11H1.5V10Z" fill="#00C443"/>
<path d="M2.5 11H3.5V12H2.5V11Z" fill="#00C443"/>
<path d="M3.5 11H4.5V12H3.5V11Z" fill="#00C443"/>
<path d="M4.5 12H5.5V13H4.5V12Z" fill="#006B1E"/>
<path d="M5.5 12H6.5V13H5.5V12Z" fill="#FA3F3F"/>
<path d="M6.5 12H7.5V13H6.5V12Z" fill="#FA3F3F"/>
<path d="M7.5 12H8.5V13H7.5V12Z" fill="#FA3F3F"/>
<path d="M8.5 12H9.5V13H8.5V12Z" fill="#006B1E"/>
<path d="M9.5 11H10.5V12H9.5V11Z" fill="#00C443"/>
<path d="M10.5 11H11.5V12H10.5V11Z" fill="#00C443"/>
<path d="M11.5 10H12.5V11H11.5V10Z" fill="#00C443"/>
<path d="M11.5 9H12.5V10H11.5V9Z" fill="#00C443"/>
<path d="M12.5 7H13.5V8H12.5V7Z" fill="#006B1E"/>
<path d="M12.5 8H13.5V9H12.5V8Z" fill="#006B1E"/>
<path d="M12.5 6H13.5V7H12.5V6Z" fill="#006B1E"/>
<path d="M12.5 4H13.5V5H12.5V4Z" fill="#006B1E"/>
<path d="M12.5 5H13.5V6H12.5V5Z" fill="#006B1E"/>
<path d="M11.5 3H12.5V4H11.5V3Z" fill="#00C443"/>
<path d="M11.5 2H12.5V3H11.5V2Z" fill="#00C443"/>
<path d="M10.5 1H11.5V2H10.5V1Z" fill="#00C443"/>
<path d="M9.5 1H10.5V2H9.5V1Z" fill="#00C443"/>
<path d="M5.5 10H6.5V11H5.5V10Z" fill="#00C443"/>
<path d="M5.5 11H6.5V12H5.5V11Z" fill="#00C443"/>
<path d="M6.5 11H7.5V12H6.5V11Z" fill="#00C443"/>
<path d="M6.5 10H7.5V11H6.5V10Z" fill="#00C443"/>
<path d="M6.5 9H7.5V10H6.5V9Z" fill="#006B1E"/>
<path d="M7.5 9H8.5V10H7.5V9Z" fill="#006B1E"/>
<path d="M7.5 10H8.5V11H7.5V10Z" fill="#00C443"/>
<path d="M7.5 11H8.5V12H7.5V11Z" fill="#00C443"/>
<path d="M8.5 11H9.5V12H8.5V11Z" fill="#00C443"/>
<path d="M8.5 10H9.5V11H8.5V10Z" fill="#00C443"/>
<path d="M8.5 9H9.5V10H8.5V9Z" fill="#00C443"/>
<path d="M8.5 8H9.5V9H8.5V8Z" fill="#006B1E"/>
<path d="M9.5 8H10.5V9H9.5V8Z" fill="#00C443"/>
<path d="M9.5 9H10.5V10H9.5V9Z" fill="#00C443"/>
<path d="M9.5 10H10.5V11H9.5V10Z" fill="#FA3F3F"/>
<path d="M10.5 10H11.5V11H10.5V10Z" fill="#FA3F3F"/>
<path d="M10.5 9H11.5V10H10.5V9Z" fill="#FA3F3F"/>
<path d="M10.5 8H11.5V9H10.5V8Z" fill="#00C443"/>
<path d="M10.5 7H11.5V8H10.5V7Z" fill="#00C443"/>
<path d="M10.5 6H11.5V7H10.5V6Z" fill="#00C443"/>
<path d="M10.5 5H11.5V6H10.5V5Z" fill="#00C443"/>
<path d="M10.5 4H11.5V5H10.5V4Z" fill="#00C443"/>
<path d="M10.5 3H11.5V4H10.5V3Z" fill="#FA3F3F"/>
<path d="M10.5 2H11.5V3H10.5V2Z" fill="#FA3F3F"/>
<path d="M9.5 2H10.5V3H9.5V2Z" fill="#FA3F3F"/>
<path d="M9.5 3H10.5V4H9.5V3Z" fill="#00C443"/>
<path d="M9.5 4H10.5V5H9.5V4Z" fill="#00C443"/>
<path d="M9.5 5H10.5V6H9.5V5Z" fill="#006B1E"/>
<path d="M9.5 6H10.5V7H9.5V6Z" fill="#006B1E"/>
<path d="M9.5 7H10.5V8H9.5V7Z" fill="#006B1E"/>
<path d="M8.5 4H9.5V5H8.5V4Z" fill="#006B1E"/>
<path d="M8.5 3H9.5V4H8.5V3Z" fill="#00C443"/>
<path d="M8.5 2H9.5V3H8.5V2Z" fill="#00C443"/>
<path d="M8.5 1H9.5V2H8.5V1Z" fill="#00C443"/>
<path d="M7.5 1H8.5V2H7.5V1Z" fill="#00C443"/>
<path d="M7.5 2H8.5V3H7.5V2Z" fill="#00C443"/>
<path d="M7.5 3H8.5V4H7.5V3Z" fill="#006B1E"/>
<path d="M6.5 3H7.5V4H6.5V3Z" fill="#006B1E"/>
<path d="M6.5 2H7.5V3H6.5V2Z" fill="#00C443"/>
<path d="M6.5 1H7.5V2H6.5V1Z" fill="#00C443"/>
<path d="M5.5 1H6.5V2H5.5V1Z" fill="#00C443"/>
<path d="M5.5 2H6.5V3H5.5V2Z" fill="#00C443"/>
<path d="M5.5 3H6.5V4H5.5V3Z" fill="#006B1E"/>
<path d="M4.5 3H5.5V4H4.5V3Z" fill="#00C443"/>
<path d="M4.5 4H5.5V5H4.5V4Z" fill="#006B1E"/>
<path d="M3.5 4H4.5V5H3.5V4Z" fill="#00C443"/>
<path d="M3.5 5H4.5V6H3.5V5Z" fill="#006B1E"/>
<path d="M3.5 6H4.5V7H3.5V6Z" fill="#006B1E"/>
<path d="M3.5 7H4.5V8H3.5V7Z" fill="#006B1E"/>
<path d="M3.5 8H4.5V9H3.5V8Z" fill="#00C443"/>
<path d="M3.5 10H4.5V11H3.5V10Z" fill="#FA3F3F"/>
<path d="M4.5 10H5.5V11H4.5V10Z" fill="#00C443"/>
<path d="M4.5 11H5.5V12H4.5V11Z" fill="#00C443"/>
<path d="M4.5 9H5.5V10H4.5V9Z" fill="#00C443"/>
<path d="M4.5 8H5.5V9H4.5V8Z" fill="#006B1E"/>
<path d="M2.5 10H3.5V11H2.5V10Z" fill="#FA3F3F"/>
<path d="M2.5 9H3.5V10H2.5V9Z" fill="#FA3F3F"/>
<path d="M2.5 8H3.5V9H2.5V8Z" fill="#00C443"/>
<path d="M2.5 7H3.5V8H2.5V7Z" fill="#00C443"/>
<path d="M2.5 6H3.5V7H2.5V6Z" fill="#00C443"/>
<path d="M2.5 5H3.5V6H2.5V5Z" fill="#00C443"/>
<path d="M2.5 4H3.5V5H2.5V4Z" fill="#00C443"/>
<path d="M2.5 3H3.5V4H2.5V3Z" fill="#FA3F3F"/>
<path d="M2.5 2H3.5V3H2.5V2Z" fill="#FA3F3F"/>
<path d="M3.5 2H4.5V3H3.5V2Z" fill="#FA3F3F"/>
<path d="M3.5 3H4.5V4H3.5V3Z" fill="#00C443"/>
<path d="M4.5 2H5.5V3H4.5V2Z" fill="#00C443"/>
<path d="M4.5 1H5.5V2H4.5V1Z" fill="#00C443"/>
<path d="M1.5 4H2.5V5H1.5V4Z" fill="#00C443"/>
<path d="M1.5 5H2.5V6H1.5V5Z" fill="#00C443"/>
<path d="M1.5 6H2.5V7H1.5V6Z" fill="#00C443"/>
<path d="M1.5 7H2.5V8H1.5V7Z" fill="#00C443"/>
<path d="M1.5 8H2.5V9H1.5V8Z" fill="#00C443"/>
<path d="M11.5 4H12.5V5H11.5V4Z" fill="#00C443"/>
<path d="M11.5 5H12.5V6H11.5V5Z" fill="#00C443"/>
<path d="M11.5 6H12.5V7H11.5V6Z" fill="#00C443"/>
<path d="M11.5 7H12.5V8H11.5V7Z" fill="#00C443"/>
<path d="M11.5 8H12.5V9H11.5V8Z" fill="#00C443"/>
<path d="M5.5 9H6.5V10H5.5V9Z" fill="#006B1E"/>
<path d="M3.5 9H4.5V10H3.5V9Z" fill="#00C443"/>
<path d="M5.5 13H6.5V14H5.5V13Z" fill="#D30000"/>
<path d="M4.5 14H5.5V15H4.5V14Z" fill="#D30000"/>
<path d="M6.5 13H7.5V14H6.5V13Z" fill="#D30000"/>
<path d="M7.5 13H8.5V14H7.5V13Z" fill="#D30000"/>
<path d="M8.5 14H9.5V15H8.5V14Z" fill="#D30000"/>
<path d="M3.5 14H4.5V15H3.5V14Z" fill="#D30000"/>
<path d="M9.5 14H10.5V15H9.5V14Z" fill="#D30000"/>
<path d="M4.5 13H5.5V14H4.5V13Z" fill="#FA3F3F"/>
<path d="M3.5 13H4.5V14H3.5V13Z" fill="#FA3F3F"/>
<path d="M8.5 13H9.5V14H8.5V13Z" fill="#FA3F3F"/>
<path d="M9.5 13H10.5V14H9.5V13Z" fill="#FA3F3F"/>
</svg>
