<svg width="12" height="14" viewBox="0 0 12 14" fill="none" xmlns="http://www.w3.org/2000/svg">
<path d="M5 3H6V4H5V3Z" fill="#006B1E"/>
<path d="M5 2H6V3H5V2Z" fill="#006B1E"/>
<path d="M6 1H7V2H6V1Z" fill="#006B1E"/>
<path d="M7 0H8V1H7V0Z" fill="#006B1E"/>
<path d="M8 0H9V1H8V0Z" fill="#006B1E"/>
<path d="M9 1H10V2H9V1Z" fill="#006B1E"/>
<path d="M10 2H11V3H10V2Z" fill="#006B1E"/>
<path d="M10 3H11V4H10V3Z" fill="#006B1E"/>
<path d="M9 4H10V5H9V4Z" fill="#006B1E"/>
<path d="M8 5H9V6H8V5Z" fill="#006B1E"/>
<path d="M7 5H8V6H7V5Z" fill="#006B1E"/>
<path d="M7 5H8V6H7V5Z" fill="#006B1E"/>
<path d="M8 5H9V6H8V5Z" fill="#006B1E"/>
<path d="M9 6H10V7H9V6Z" fill="#006B1E"/>
<path d="M10 7H11V8H10V7Z" fill="#006B1E"/>
<path d="M10 8H11V9H10V8Z" fill="#006B1E"/>
<path d="M9 9H10V10H9V9Z" fill="#006B1E"/>
<path d="M8 10H9V11H8V10Z" fill="#006B1E"/>
<path d="M7 10H8V11H7V10Z" fill="#006B1E"/>
<path d="M6 9H7V10H6V9Z" fill="#006B1E"/>
<path d="M5 8H6V9H5V8Z" fill="#006B1E"/>
<path d="M5 7H6V8H5V7Z" fill="#006B1E"/>
<path d="M4 9H5V10H4V9Z" fill="#006B1E"/>
<path d="M3 10H4V11H3V10Z" fill="#006B1E"/>
<path d="M2 10H3V11H2V10Z" fill="#006B1E"/>
<path d="M1 9H2V10H1V9Z" fill="#006B1E"/>
<path d="M0 8H1V9H0V8Z" fill="#006B1E"/>
<path d="M0 7H1V8H0V7Z" fill="#006B1E"/>
<path d="M1 6H2V7H1V6Z" fill="#006B1E"/>
<path d="M2 5H3V6H2V5Z" fill="#006B1E"/>
<path d="M3 5H4V6H3V5Z" fill="#006B1E"/>
<path d="M1 4H2V5H1V4Z" fill="#006B1E"/>
<path d="M0 3H1V4H0V3Z" fill="#006B1E"/>
<path d="M0 2H1V3H0V2Z" fill="#006B1E"/>
<path d="M1 1H2V2H1V1Z" fill="#006B1E"/>
<path d="M2 0H3V1H2V0Z" fill="#006B1E"/>
<path d="M3 0H4V1H3V0Z" fill="#006B1E"/>
<path d="M4 1H5V2H4V1Z" fill="#006B1E"/>
<path d="M10 10H11V11H10V10Z" fill="#006B1E"/>
<path d="M11 11H12V12H11V11Z" fill="#006B1E"/>
<path d="M11 12H12V13H11V12Z" fill="#006B1E"/>
<path d="M10 13H11V14H10V13Z" fill="#006B1E"/>
<path d="M6 5H7V6H6V5Z" fill="#00C443"/>
<path d="M5 5H6V6H5V5Z" fill="#00C443"/>
<path d="M5 6H6V7H5V6Z" fill="#00C443"/>
<path d="M6 6H7V7H6V6Z" fill="#00C443"/>
<path d="M6 7H7V8H6V7Z" fill="#00C443"/>
<path d="M6 8H7V9H6V8Z" fill="#00C443"/>
<path d="M7 8H8V9H7V8Z" fill="#00C443"/>
<path d="M7 9H8V10H7V9Z" fill="#00C443"/>
<path d="M8 9H9V10H8V9Z" fill="#00C443"/>
<path d="M8 8H9V9H8V8Z" fill="#00C443"/>
<path d="M8 7H9V8H8V7Z" fill="#00C443"/>
<path d="M8 6H9V7H8V6Z" fill="#00C443"/>
<path d="M7 6H8V7H7V6Z" fill="#00C443"/>
<path d="M7 7H8V8H7V7Z" fill="#00C443"/>
<path d="M9 7H10V8H9V7Z" fill="#00C443"/>
<path d="M9 8H10V9H9V8Z" fill="#00C443"/>
<path d="M4 6H5V7H4V6Z" fill="#00C443"/>
<path d="M4 7H5V8H4V7Z" fill="#00C443"/>
<path d="M4 8H5V9H4V8Z" fill="#00C443"/>
<path d="M3 8H4V9H3V8Z" fill="#00C443"/>
<path d="M3 9H4V10H3V9Z" fill="#00C443"/>
<path d="M2 9H3V10H2V9Z" fill="#00C443"/>
<path d="M2 8H3V9H2V8Z" fill="#00C443"/>
<path d="M2 7H3V8H2V7Z" fill="#00C443"/>
<path d="M2 6H3V7H2V6Z" fill="#00C443"/>
<path d="M3 6H4V7H3V6Z" fill="#00C443"/>
<path d="M3 7H4V8H3V7Z" fill="#00C443"/>
<path d="M1 7H2V8H1V7Z" fill="#00C443"/>
<path d="M1 8H2V9H1V8Z" fill="#00C443"/>
<path d="M4 5H5V6H4V5Z" fill="#00C443"/>
<path d="M4 4H5V5H4V4Z" fill="#00C443"/>
<path d="M4 3H5V4H4V3Z" fill="#00C443"/>
<path d="M4 2H5V3H4V2Z" fill="#00C443"/>
<path d="M3 2H4V3H3V2Z" fill="#00C443"/>
<path d="M3 3H4V4H3V3Z" fill="#00C443"/>
<path d="M3 4H4V5H3V4Z" fill="#00C443"/>
<path d="M2 4H3V5H2V4Z" fill="#00C443"/>
<path d="M2 3H3V4H2V3Z" fill="#00C443"/>
<path d="M2 2H3V3H2V2Z" fill="#00C443"/>
<path d="M2 1H3V2H2V1Z" fill="#00C443"/>
<path d="M3 1H4V2H3V1Z" fill="#00C443"/>
<path d="M1 2H2V3H1V2Z" fill="#00C443"/>
<path d="M1 3H2V4H1V3Z" fill="#00C443"/>
<path d="M5 4H6V5H5V4Z" fill="#00C443"/>
<path d="M6 4H7V5H6V4Z" fill="#00C443"/>
<path d="M6 3H7V4H6V3Z" fill="#00C443"/>
<path d="M6 2H7V3H6V2Z" fill="#00C443"/>
<path d="M7 2H8V3H7V2Z" fill="#00C443"/>
<path d="M7 3H8V4H7V3Z" fill="#00C443"/>
<path d="M7 4H8V5H7V4Z" fill="#00C443"/>
<path d="M8 4H9V5H8V4Z" fill="#00C443"/>
<path d="M8 3H9V4H8V3Z" fill="#00C443"/>
<path d="M8 2H9V3H8V2Z" fill="#00C443"/>
<path d="M8 1H9V2H8V1Z" fill="#00C443"/>
<path d="M7 1H8V2H7V1Z" fill="#00C443"/>
<path d="M9 2H10V3H9V2Z" fill="#00C443"/>
<path d="M9 3H10V4H9V3Z" fill="#00C443"/>
</svg>
